<?xml version="1.0" encoding="utf-8"?>
<!-- Generator: Adobe Illustrator 24.1.0, SVG Export Plug-In . SVG Version: 6.00 Build 0)  -->
<svg version="1.1" id="Layer_1" xmlns="http://www.w3.org/2000/svg" xmlns:xlink="http://www.w3.org/1999/xlink" x="0px" y="0px"
	 viewBox="0 0 500 189.4" style="enable-background:new 0 0 500 189.4;" xml:space="preserve">
<style type="text/css">
	.st0{fill:#741E9D;}
	.st1{fill:#00BA0E;}
</style>
<g id="qqv0wh_10_">
	<g>
		<path class="st0" d="M0,107.1c0.8-31.2,13.3-56.2,37.1-75.5C55.8,16.4,77,6.1,100.9,1.7c14.7-2.7,29.3-2.5,43.5,2.3
			c24.7,8.4,38.9,25.9,43.6,51.1c4.4,23.8-0.9,46.2-11.2,67.6c-8.8,18.4-20,35.2-36.8,47.5c-17.5,12.9-37.2,19.7-58.9,19.2
			C34.4,188.2,5,154.1,0.8,117.5C0.4,114,0.2,110.4,0,107.1z M8.8,114.6c0.5,16.7,6.7,33.8,21,46.9c19.2,17.6,41.9,23.4,66.9,15.4
			c19-6,29.5-27,24.5-45.9c-3.9-14.9-17.5-24.1-35.1-23.3c-8.4,0.4-16.8,2.1-25.2,2.9c-14.8,1.2-29.6,0.7-43.8-4.3
			C8.8,103.4,8.8,103.4,8.8,114.6z"/>
		<path class="st0" d="M230.4,110.3c0,3.2,0.3,7.1-0.1,11c-0.5,5.6-5.9,8.8-10.8,6.4c-1.9-0.9-3.1-3.3-4.5-5.1
			c-0.4-0.6-0.4-1.5-0.4-2.3c0-19.4-0.1-38.9,0.1-58.3c0-5.3,3.9-8.3,9-7.7c1.1,0.1,2.5,0.4,3.1,1.1c2.1,2.5,4.1,1.5,6.5,0.7
			c10.9-3.8,21.1-2.2,29.7,5.7c8.7,8.1,11.6,18.2,8.1,29.6c-3.4,11.3-11.4,18.2-23,19.9C242.6,112.1,236.9,110.7,230.4,110.3z
			 M243.7,70.2c-7.4,0-13,5.4-13,12.6c-0.1,7.2,5.6,13,12.8,13c7.1,0,12.9-5.8,12.9-12.8C256.3,75.9,250.7,70.2,243.7,70.2z"/>
		<path class="st0" d="M321.8,108.4c-9.4,4.4-18.8,4.7-28-0.3c-11.6-6.3-17.3-20.1-13.7-33c3.6-13.1,15.7-21.5,30-20.8
			c12.6,0.6,24.4,10.4,25.9,23.1c1.1,9.1,0.9,18.5,0.6,27.7c-0.2,5.7-7.3,8.5-12.1,5.4C323.6,109.8,322.7,109.1,321.8,108.4z
			 M307.9,70.2c-7.2,0-13,5.8-13,12.8c0.1,6.9,5.9,12.6,12.8,12.7c7.2,0.1,13-5.6,13-12.7C320.9,75.9,315.1,70.2,307.9,70.2z"/>
		<path class="st0" d="M362.8,87.2c0,5.4,0.1,10.8,0,16.2c-0.1,5.1-3.2,8.3-7.8,8.3c-4.6,0-8.1-3.1-8.2-8.1c-0.2-11-0.2-22.1,0-33.1
			c0.1-4.9,3.6-8.2,8.1-8.1c4.6,0,7.8,3.2,7.9,8.3C362.9,76.1,362.8,81.6,362.8,87.2z"/>
		<path class="st1" d="M323.1,28.9c11.6-4.3,34.1,4.9,39.1,22C348.8,55.4,328.2,45,323.1,28.9z"/>
		<path class="st0" d="M468.3,160.5c-3.3,0-6,0-8.7,0c-1.6,0-2.9-0.2-2.9-2.3c0-2,0.7-3,2.8-2.9c3.8,0,7.7,0,11.5,0
			c1.9,0,2.5,0.9,2.6,2.7c0.3,7-5.3,13.4-12.7,14.2c-7.5,0.8-14.6-4.3-15.7-11.4c-1-6.8,1.8-12.7,7.5-15.6
			c5.5-2.8,12.3-1.8,16.6,2.6c1.2,1.2,3.1,2.6,1.2,4.5c-1.8,1.8-3.2,0.3-4.6-1c-4.5-4.2-10.7-3.7-14.3,1c-3.3,4.4-2.3,10.6,2.3,13.7
			c4.5,3,10.8,1.6,13.5-3.2C467.8,162.3,467.9,161.7,468.3,160.5z"/>
		<path class="st0" d="M345.6,160.5c0-3.8,0-7.6,0-11.4c0-1.1-0.2-2.4,0.3-3.3c0.5-0.9,1.6-1.8,2.6-1.9c0.6-0.1,2,1.3,2,2
			c0.2,8,0.1,16,0,24c0,0.7-1.1,2.1-1.6,2.1c-1.1,0-2.5-0.5-3.1-1.3c-3.3-4-6.3-8.2-9.5-12.3c-0.8-1-1.7-2.1-3.4-2.9
			c0,3.5,0,7,0,10.6c0,1.1,0.3,2.4-0.1,3.3c-0.5,1.1-1.7,1.9-2.6,2.9c-0.8-1-2.4-2-2.4-3c-0.2-7.4-0.2-14.9,0-22.3
			c0-1,0.9-2.7,1.6-2.9c1-0.2,2.7,0.4,3.4,1.3c3.4,4.2,6.6,8.5,9.9,12.8c0.7,0.9,1.4,1.7,2.1,2.6C345,160.7,345.3,160.6,345.6,160.5
			z"/>
		<path class="st0" d="M356.7,158c0-8.1,6.2-14.3,14.4-14.3c8.1,0,14.4,6.4,14.3,14.5c-0.1,7.9-6.3,14.1-14.3,14.1
			C363,172.3,356.7,166.1,356.7,158z M361.8,158.1c0.1,5.1,4.2,9.3,9.2,9.3c5.1,0,9.6-4.4,9.5-9.5c-0.1-5.2-4.5-9.4-9.7-9.2
			C365.7,148.8,361.7,152.9,361.8,158.1z"/>
		<path class="st0" d="M411.7,157.8c0-8.1,6.3-14.2,14.5-14.1c8.1,0.1,14.2,6.4,14.1,14.6c-0.1,8-6.3,14-14.3,14
			C417.8,172.3,411.6,166,411.7,157.8z M426,148.7c-5.1-0.1-9.4,4.1-9.5,9.1c-0.2,5,4.3,9.6,9.4,9.7c5,0.1,9.6-4.5,9.6-9.5
			C435.3,152.9,431.1,148.7,426,148.7z"/>
		<path class="st0" d="M246.7,155.3c3.1,0,6,0,8.9,0c2,0,4.5-0.4,4.6,2.6c0.1,3.1-2.5,2.6-4.4,2.6c-3,0.1-6,0-8.8,0
			c-0.3,0.7-0.5,0.9-0.5,1.1c-0.6,5.7-0.6,5.7,5.1,5.7c1.9,0,3.9-0.3,5.7,0.1c1.1,0.2,2,1.5,3,2.3c-0.9,0.8-1.8,2.3-2.7,2.3
			c-4.5,0.2-9,0.1-13.6,0.1c-1.9,0-2.8-1-2.8-3c0.1-7.4,0-14.9,0-22.3c0-2.1,0.8-3.2,3-3.2c4.4,0,8.8-0.1,13.2,0.1
			c1,0.1,1.9,1.6,2.9,2.5c-1,0.8-1.9,2.3-3,2.4c-3.5,0.3-7,0.1-10.7,0.1C246.7,151,246.7,152.9,246.7,155.3z"/>
		<path class="st0" d="M302.9,155c1.1,0.1,1.7,0.2,2.4,0.3c3,0,6.1,0,9.7,0c0-2.9,0-5.5,0-8.2c0-1.6,0.2-3.3,2.4-3.3
			c2.2,0,2.5,1.5,2.5,3.2c0,7.3,0,14.7,0,22c0,1.8-0.6,3.5-2.6,3c-1-0.2-1.6-1.9-2.4-2.9c-0.1-0.2,0-0.4,0-0.7
			c-0.2-2.5,0.3-6.8-0.8-7.2c-2.7-1.1-6.2-0.7-9.3-0.5c-0.7,0-1.8,1.3-1.9,2.1c-0.3,2.2,0.1,4.5-0.2,6.7c-0.2,1-1.5,1.8-2.3,2.7
			c-0.9-0.9-2.5-1.8-2.6-2.7c-0.2-7.7-0.2-15.3,0-23c0-0.9,1.5-1.8,2.3-2.7c0.9,0.9,2.4,1.8,2.5,2.8
			C303.2,149.2,302.9,151.9,302.9,155z"/>
		<path class="st0" d="M265,158.1c0-6,3.3-11.2,8.7-13.3c5.6-2.2,10.9-1.3,15.4,2.8c1.3,1.2,3.4,2.8,1.4,4.8
			c-1.7,1.8-3.2,0.3-4.6-1.1c-4.2-3.9-9.8-3.7-13.6,0.3c-3.6,3.8-3.5,9.4,0.2,13.1c3.8,3.9,9.5,3.9,13.6-0.1
			c1.4-1.3,2.8-2.9,4.5-1.1c1.7,1.8,0.1,3.3-1.1,4.6c-3.9,4.1-10.3,5.3-15.7,3.2C268.5,169.2,265.1,164,265,158.1z"/>
		<path class="st0" d="M488.2,157c2.3-4,4.3-7.4,6.3-10.9c1-1.7,2.2-3.3,4.2-2.1c2.1,1.2,1.3,3.1,0.3,4.7c-1.5,2.5-2.9,5.1-4.4,7.6
			c-2.5,3.9-4.4,7.8-3.9,12.6c0.1,1-1.4,2.1-2.2,3.1c-0.9-0.9-2.7-1.9-2.6-2.7c0.9-7.3-3.9-12.2-6.8-18c-0.7-1.3-1.8-2.5-2.1-3.8
			c-0.2-1.1,0.4-2.4,0.7-3.6c1.3,0.4,3.1,0.4,3.7,1.2C483.6,148.8,485.6,152.6,488.2,157z"/>
		<path class="st0" d="M222.9,148.8c-2.1,0-3.9,0.4-5.5-0.1c-1.1-0.3-1.9-1.8-2.8-2.7c0.9-0.8,1.8-2.2,2.8-2.2
			c5.5-0.2,11.1-0.2,16.6,0c1,0,1.9,1.6,2.9,2.4c-1,0.9-1.8,2.1-3,2.5c-1.6,0.5-4.4-0.2-5,0.7c-0.9,1.5-0.6,3.9-0.6,5.9
			c-0.1,4.4,0,8.8,0,13.2c0,1.8,0,3.6-2.4,3.7c-2.5,0-2.8-1.8-2.8-3.8c0-5.3,0-10.6,0-15.9C223.1,151.4,223,150.3,222.9,148.8z"/>
		<path class="st0" d="M396.6,167.3c3.5,0,6.7,0,9.8,0c1.7,0,3.6,0.3,3.1,2.4c-0.2,1-2,2.3-3.2,2.4c-3.8,0.3-7.7,0.1-11.5,0.1
			c-2.4,0-3.4-1.1-3.4-3.5c0.1-7.2-0.1-14.5,0.1-21.7c0-1.1,1.4-3,2.4-3.2c2.2-0.4,2.7,1.5,2.7,3.4c0,5.3,0,10.6,0,15.9
			C396.6,164.4,396.6,165.6,396.6,167.3z"/>
		<path class="st0" d="M87.6,161.9c-11.4,0-20.4-10.5-19.4-22.6c1-11.8,10.5-19.7,21.7-17.9c10.2,1.6,17.8,13.2,15.7,24.1
			C103.8,155.5,96.8,161.8,87.6,161.9z"/>
		<path class="st0" d="M35,136c0,6.3-2,10.1-5.2,11.2c-3.1,1-7.1-1.3-10-6c-3.7-6-5.2-12.5-3.1-19.4c1.7-5.6,6.2-6.9,10.7-3.2
			C32.8,123.4,34.7,129.8,35,136z"/>
	</g>
</g>
</svg>
