<?xml version="1.0" standalone="no"?>
<!DOCTYPE svg PUBLIC "-//W3C//DTD SVG 20010904//EN"
 "http://www.w3.org/TR/2001/REC-SVG-20010904/DTD/svg10.dtd">
<svg version="1.0" xmlns="http://www.w3.org/2000/svg"
 width="1280.000000pt" height="1280.000000pt" viewBox="0 0 1280.000000 1280.000000"
 preserveAspectRatio="xMidYMid meet">
<metadata>
Created by potrace 1.11, written by Peter Selinger 2001-2013
</metadata>
<g transform="translate(0.000000,1280.000000) scale(0.100000,-0.100000)"
fill="#000000" stroke="none">
<path d="M2947 11784 c-1 -1 -43 -5 -94 -8 -50 -4 -100 -8 -110 -10 -10 -2
-43 -7 -73 -11 -180 -22 -442 -89 -565 -144 -137 -62 -199 -95 -295 -160 -198
-132 -375 -331 -494 -555 -86 -162 -187 -466 -221 -665 -3 -19 -7 -37 -9 -40
-2 -3 -7 -30 -11 -60 -4 -30 -9 -63 -11 -75 -7 -32 -13 -76 -19 -131 -3 -27
-7 -68 -10 -90 -9 -83 -15 -149 -20 -238 -3 -51 -8 -123 -11 -162 -9 -112 -11
-6668 -2 -6748 31 -290 82 -475 190 -697 91 -187 161 -285 318 -449 167 -172
427 -332 711 -437 103 -38 344 -103 434 -118 96 -16 166 -26 215 -31 30 -3 64
-8 75 -10 128 -25 783 -25 913 0 10 1 45 6 77 10 74 8 143 20 260 46 50 10 99
21 110 23 40 8 162 49 260 86 382 146 672 374 878 690 145 224 242 499 283
800 12 94 18 239 18 462 0 142 1 256 2 255 2 -1 133 -130 291 -287 339 -336
414 -406 688 -646 73 -64 252 -213 325 -271 8 -6 40 -31 70 -56 53 -42 273
-208 316 -237 167 -116 479 -320 490 -320 2 0 33 -18 69 -40 69 -42 353 -187
465 -237 350 -157 711 -258 1045 -290 139 -14 555 -6 667 12 13 2 45 6 72 10
41 5 117 18 221 39 108 21 317 92 425 144 157 75 283 164 406 286 61 61 122
127 135 147 13 20 42 62 63 94 136 204 251 538 300 870 30 201 40 306 54 550
9 173 9 6829 -1 6925 -10 97 -16 140 -34 225 -25 121 -29 138 -66 248 -149
441 -467 803 -895 1016 -259 129 -506 207 -782 246 -25 4 -56 8 -70 10 -29 5
-94 12 -205 22 -107 10 -463 10 -605 0 -121 -8 -137 -10 -240 -22 -63 -7 -77
-9 -130 -20 -14 -2 -45 -7 -70 -10 -93 -13 -406 -98 -425 -116 -5 -5 -15 -9
-22 -9 -23 0 -243 -101 -333 -153 -251 -145 -462 -349 -600 -583 -133 -224
-220 -496 -246 -769 -4 -44 -9 -88 -10 -97 -1 -10 -2 -167 -3 -348 l-1 -330
-208 207 c-272 272 -517 505 -667 633 -27 24 -52 46 -55 49 -12 16 -364 310
-460 385 -58 44 -112 86 -120 93 -27 22 -182 136 -308 226 -378 272 -815 517
-1172 660 -154 61 -327 120 -381 131 -13 2 -50 11 -82 20 -32 8 -75 18 -95 21
-21 3 -49 8 -62 10 -14 3 -45 8 -70 11 -25 3 -58 8 -75 11 -28 5 -402 12 -408
7z m383 -1083 c286 -48 594 -177 955 -399 94 -57 386 -252 395 -262 3 -3 59
-46 125 -95 66 -49 122 -92 125 -96 3 -4 28 -24 55 -44 167 -126 529 -443 829
-725 139 -130 626 -619 772 -775 258 -274 290 -309 407 -440 l117 -130 1
-1035 c0 -569 2 -1069 5 -1110 4 -67 26 -232 38 -285 2 -11 9 -42 15 -70 30
-131 104 -321 173 -442 144 -250 342 -436 593 -558 176 -85 349 -123 560 -123
163 0 220 7 376 49 309 82 596 312 758 607 177 322 218 631 137 1029 -43 208
-163 484 -299 688 -33 49 -199 281 -230 320 -4 6 -36 48 -70 95 -157 213 -536
704 -598 775 -16 18 -215 259 -256 310 -9 11 -43 51 -75 88 l-58 68 1 917 c0
504 5 945 10 980 42 290 214 473 547 581 94 31 99 32 237 55 221 36 408 46
695 36 349 -12 677 -118 857 -276 98 -87 181 -214 217 -334 47 -154 45 10 42
-3595 -1 -1864 -5 -3421 -9 -3460 -3 -38 -9 -101 -12 -140 -32 -376 -111 -622
-234 -732 -96 -87 -296 -149 -550 -171 -123 -10 -400 -6 -481 7 -208 35 -431
103 -637 195 -105 47 -289 141 -355 183 -21 13 -40 23 -42 23 -24 0 -575 375
-616 420 -3 3 -34 27 -70 55 -36 27 -74 57 -85 67 -11 9 -76 62 -145 119 -69
56 -141 117 -160 134 -19 18 -66 60 -105 95 -205 184 -598 572 -796 784 -41
44 -81 87 -89 96 -8 8 -49 53 -90 99 -41 47 -84 94 -95 106 -58 62 -119 131
-200 225 -49 58 -92 107 -95 110 -3 3 -43 50 -90 104 l-85 100 -1 1050 c-1
930 -6 1234 -19 1286 -2 8 -7 35 -10 60 -22 177 -89 391 -176 565 -163 329
-442 576 -770 684 -36 12 -76 24 -90 26 -13 3 -46 9 -74 15 -102 20 -123 22
-250 22 -111 -1 -198 -11 -315 -36 -116 -26 -298 -107 -422 -189 -229 -151
-418 -398 -507 -664 -32 -96 -49 -161 -58 -228 -3 -22 -9 -60 -13 -84 -9 -47
-5 -315 4 -371 40 -226 87 -373 181 -565 97 -199 158 -292 376 -575 14 -19
119 -159 232 -310 112 -151 247 -330 298 -397 52 -66 114 -147 139 -180 48
-62 171 -215 180 -223 3 -3 21 -25 40 -50 19 -25 37 -47 40 -50 3 -3 36 -42
74 -88 l68 -83 0 -892 c0 -491 -3 -917 -6 -947 -41 -338 -239 -538 -634 -640
-83 -22 -90 -23 -162 -35 -119 -20 -273 -29 -475 -29 -356 1 -581 31 -799 105
-323 109 -494 305 -524 599 -9 92 -8 6513 2 6660 18 293 22 337 46 520 38 286
112 491 222 614 80 90 200 158 319 181 100 20 142 25 222 31 51 4 93 7 94 8 9
7 294 -4 353 -13z m1138 -3155 c108 -56 178 -214 197 -447 5 -60 10 -693 6
-808 -1 -19 -21 3 -88 96 -49 66 -129 176 -178 244 -217 297 -298 473 -294
638 2 81 12 117 47 174 26 41 92 90 150 112 43 16 120 12 160 -9z m3957 -1431
c139 -185 218 -314 269 -437 61 -147 66 -245 20 -348 -33 -73 -79 -112 -154
-130 -196 -47 -334 98 -365 385 -4 33 -10 87 -13 120 -6 53 -7 183 -3 609 l1
119 62 -79 c35 -44 117 -151 183 -239z"/>
</g>
</svg>
